<svg xmlns="http://www.w3.org/2000/svg" width="53" height="53" viewBox="0 0 53 53"><path d="M52.923.618A1.003 1.003 0 0 0 52 0H40a1 1 0 0 0 0 2h9.586L33.293 18.293a.999.999 0 1 0 1.414 1.414L51 3.414V13a1 1 0 0 0 2 0V1c0-.13-.027-.26-.077-.382zm-34.63 32.675L2 49.586V40a1 1 0 0 0-2 0v12a1.003 1.003 0 0 0 1 1h12a1 1 0 0 0 0-2H3.414l16.293-16.293a.999.999 0 1 0-1.414-1.414zM1 14a1 1 0 0 0 1-1V3.414l16.292 16.292a.997.997 0 0 0 1.414 0 .999.999 0 0 0 0-1.414L3.414 2H13a1 1 0 0 0 0-2H1a1.003 1.003 0 0 0-1 1v12a1 1 0 0 0 1 1zm51 25a1 1 0 0 0-1 1v9.586L34.707 33.292a.999.999 0 1 0-1.414 1.414L49.586 51H40a1 1 0 0 0 0 2h12a1.003 1.003 0 0 0 1-1V40a1 1 0 0 0-1-1z"/></svg>