<svg xmlns="http://www.w3.org/2000/svg" width="315.77" height="315.77" viewBox="0 0 315.77 315.77"><path d="M287.355 0H28.173C17.145 0 8.386 8.472 8.386 19.5v213.822C8.386 244.35 17.145 253 28.173 253h67.628c5.514 0 9.585 4.809 9.585 10.322V302.5c0 9.169 5.476 13.272 10.697 13.272 3.053 0 6.293-1.282 9.423-3.813l62.314-50.482c5.483-4.431 16.527-8.478 23.576-8.478h75.959c11.028 0 20.031-8.649 20.031-19.678V19.5c0-11.028-9.003-19.5-20.031-19.5zM182.904 92.834l-26.124 90.563c-1.422 5.357-2.131 8.91-2.131 10.657 0 .877.381 1.75 1.148 2.624.763.876 1.583 1.311 2.459 1.311 1.529 0 3.005-.656 4.427-1.967 3.781-3.067 8.186-8.43 13.213-16.087.347-.529 1.496-1.585 2.16-.987l2.682 1.532c.665.574.253 1.403-.021 1.869-13.096 22.234-26.977 33.347-41.643 33.347-5.685 0-10.222-1.614-13.608-4.836-3.389-3.222-5.083-7.296-5.083-12.215 0-3.279.763-7.432 2.295-12.46l18.363-63.123c1.747-6.009 2.623-10.546 2.623-13.608 0-1.967-.848-3.714-2.541-5.246-1.696-1.529-3.963-2.296-6.804-2.296-.579 0-1.185.009-1.817.028-.922.026-2.655-.706-2.359-1.632.25-.779.509-1.617.618-2.063.507-2.068 5.213-2.185 5.213-2.185l36.527-5.887s2.912-.558 4.984-.558c1.587 0 3.096.014 4.127 0 2.798-.038 1.292 3.219 1.292 3.219zm6.504-30.847c-3.827 3.771-8.418 5.656-13.772 5.656-5.247 0-9.755-1.885-13.526-5.656-3.771-3.771-5.656-8.333-5.656-13.69 0-5.354 1.857-9.944 5.574-13.772 3.715-3.825 8.251-5.739 13.608-5.739 5.464 0 10.083 1.914 13.854 5.739 3.771 3.828 5.656 8.419 5.656 13.772 0 5.357-1.914 9.919-5.738 13.69z"/></svg>