<svg xmlns="http://www.w3.org/2000/svg" width="469.67" height="469.67" viewBox="0 0 469.67 469.67"><path d="M310.69 263.889a.51.51 0 0 0 .043-.005c13.94-1.773 23.836-14.593 22.059-28.57l-8.684-69.171c-1.619-12.732-12.542-22.333-25.408-22.333-1.082 0-2.178.069-3.257.206-6.773.861-12.794 4.31-16.955 9.712-4.152 5.39-5.963 12.09-5.102 18.858l5.493 43.765-32.589 4.091c-6.775.861-12.809 4.326-16.992 9.757-4.173 5.418-5.996 12.133-5.134 18.907 1.614 12.693 12.492 22.266 25.303 22.266h.001c1.087 0 2.188-.07 3.266-.207l57.914-7.27.042-.006zm-1.063-8.436a4.506 4.506 0 0 0-.203.029l-57.755 7.25c-.731.093-1.471.14-2.201.14h-.001c-8.543 0-15.795-6.379-16.871-14.838a17.07 17.07 0 0 1 3.437-12.648c2.792-3.625 6.815-5.938 11.323-6.511l36.799-4.619a4.25 4.25 0 0 0 3.688-4.746l-6.023-47.989c-.577-4.531.632-9.008 3.403-12.605a16.833 16.833 0 0 1 11.293-6.466 17.42 17.42 0 0 1 2.185-.139c8.598 0 15.896 6.408 16.976 14.898l8.683 69.171c1.185 9.318-5.382 17.86-14.597 19.061a1.603 1.603 0 0 0-.136.012z"/><path d="M306.651 124.488a41.006 41.006 0 0 0-6.621-.537c-20.177 0-39.234 14.494-47.409 36.035l-2.091 5.381c-34.945 4.348-63.038 31.235-68.781 66.233-3.818 23.268 2.715 46.645 17.953 64.56l-9.833 25.301a4.249 4.249 0 0 0 3.274 5.734l67.199 11.028v102.333c0 16.053 13.06 29.112 29.112 29.112s29.112-13.06 29.112-29.112v-92.778l30.834 5.06a4.25 4.25 0 0 0 4.934-4.387l-7.843-173.036c-1.021-25.888-17.775-47.306-39.84-50.927zm3.414 316.068c0 7.485-4.023 14.031-10.008 17.643v-67.104a4.25 4.25 0 0 0-8.5 0v69.967c-.692.07-1.394.107-2.103.107-11.366 0-20.612-9.247-20.612-20.612v-100.94l41.224 6.766v94.173zm-110.375-120.9l8.869-22.822a4.248 4.248 0 0 0-.815-4.396c-14.729-16.222-21.146-37.894-17.607-59.459 5.26-32.054 31.497-56.492 63.804-59.43a4.25 4.25 0 0 0 3.577-2.693l3.04-7.822c6.942-18.292 22.805-30.582 39.474-30.582 1.764 0 3.528.143 5.244.424 18.1 2.971 31.861 21.001 32.723 42.899l6.656 146.839-73.12-12.674a4.25 4.25 0 0 0-1.453 8.375l74.966 12.994.557 12.293-145.915-23.946zM365.652 85.525c-.793-3.207-19.994-78.629-70.501-84.911C291.779.195 288.871 0 286 0c-10.253 0-19.397 2.579-27.922 7.861-4.558.648-21.092 3.713-26.567 14.582-2.736 5.433-2.234 11.625 1.472 18.413a56.684 56.684 0 0 0-4.038 37.782c6.23 26.003 29.544 43.532 55.185 43.531 4.364 0 8.798-.508 13.224-1.569a56.858 56.858 0 0 0 23.445-11.895c12.618-1.937 26.285-7.875 43.017-18.58a4.25 4.25 0 0 0 1.836-4.6zM239.098 26.276c2.999-5.971 13.604-8.895 19.167-9.837 5.554 4.781 26.37 23.832 34.007 46.785-6.17-3.638-13.471-5.767-20.633-7.844-12.642-3.664-24.582-7.125-30.871-18.004-2.609-4.513-3.155-8.144-1.67-11.1zm56.275 86.058c-25.873 6.197-51.963-9.806-58.162-35.677a48.212 48.212 0 0 1 1.648-27.916c8.311 8.382 19.921 11.761 30.415 14.802 10.531 3.052 20.483 5.955 25.729 13.209.516 8.001-1.019 16.212-5.667 24.254a4.252 4.252 0 0 0 3.146 6.343c1.557.197 3.109.437 4.753.69 2.395.37 4.84.743 7.433 1.01a48.356 48.356 0 0 1-9.295 3.285zm16.232-11.407h-.002c-4.383 0-8.335-.56-12.143-1.144 7.946-18.307 4.516-39.311-10.088-61.146-7.864-11.757-17.056-20.958-22.489-25.929C272.791 9.882 279.093 8.5 286 8.5c2.512 0 5.086.175 8.102.549 39.515 4.915 58.486 61.908 62.484 75.584-23.215 14.397-36.206 16.294-44.981 16.294zm-100.558 51.697a4.251 4.251 0 0 0 4.469-2.144c1.338-2.443 12.901-24.216 7.071-36.302-2.382-4.939-7.475-8.131-12.973-8.131-2.188 0-4.303.485-6.285 1.441a14.383 14.383 0 0 0-7.335 8.211 14.325 14.325 0 0 0-10.989.628 14.345 14.345 0 0 0-7.352 8.213 14.279 14.279 0 0 0 .616 11.014c5.775 11.973 30.031 16.583 32.778 17.07zm-25.376-25.266a5.903 5.903 0 0 1 3.027-3.376 5.858 5.858 0 0 1 2.565-.59 5.883 5.883 0 0 1 5.34 3.351 4.25 4.25 0 0 0 7.656-3.692 5.929 5.929 0 0 1 2.76-7.907 5.926 5.926 0 0 1 2.593-.597c2.29 0 4.328 1.273 5.316 3.324 2.651 5.495-1.51 17.679-5.444 25.757-8.064-1.856-20.873-6.193-23.562-11.767a5.85 5.85 0 0 1-.251-4.503zm-49.008-58.239a14.36 14.36 0 0 0-6.286 1.441 14.376 14.376 0 0 0-7.334 8.21 14.33 14.33 0 0 0-10.989.627c-7.162 3.455-10.184 12.08-6.736 19.229 5.776 11.973 30.031 16.583 32.778 17.069a4.251 4.251 0 0 0 4.469-2.144c1.338-2.442 12.901-24.215 7.071-36.302-2.42-5.015-7.391-8.13-12.973-8.13zm-.129 37.58c-8.064-1.856-20.873-6.192-23.561-11.766-1.412-2.926-.168-6.461 2.773-7.879a5.859 5.859 0 0 1 2.566-.59 5.882 5.882 0 0 1 5.34 3.351 4.25 4.25 0 1 0 7.656-3.692 5.93 5.93 0 0 1 2.76-7.906 5.93 5.93 0 0 1 2.594-.597c2.29 0 4.327 1.273 5.315 3.322 2.652 5.495-1.508 17.679-5.443 25.757zm60.951-73.72a14.27 14.27 0 0 0-3.771-10.376 14.368 14.368 0 0 0-9.993-4.66 14.387 14.387 0 0 0-10.361 3.721 14.318 14.318 0 0 0-9.962-4.65c-8.012-.365-14.702 5.795-15.065 13.717-.61 13.28 18.541 28.861 20.727 30.594a4.244 4.244 0 0 0 4.951.237c2.337-1.514 22.858-15.177 23.474-28.583zm-25.524 19.688c-6.213-5.465-15.421-15.366-15.137-21.548a5.89 5.89 0 0 1 6.186-5.615 5.88 5.88 0 0 1 4.103 1.923 5.884 5.884 0 0 1 1.541 4.262 4.25 4.25 0 0 0 4.051 4.441 4.254 4.254 0 0 0 4.44-4.051c.149-3.262 2.845-5.795 6.188-5.646a5.924 5.924 0 0 1 4.121 1.919 5.824 5.824 0 0 1 1.54 4.236c-.28 6.097-9.732 14.841-17.033 20.079z"/></svg>