<svg xmlns="http://www.w3.org/2000/svg" width="512" height="512" viewBox="0 0 512 512"><path d="M370.807 0H141.201c-16.691 0-30.268 13.577-30.268 30.268v451.465c0 16.691 13.576 30.268 30.268 30.268h229.598c16.691 0 30.268-13.576 30.268-30.268V30.268C401.067 13.577 387.49 0 370.807 0zM384 481.732c0 7.279-5.922 13.201-13.193 13.201H141.201c-7.279 0-13.201-5.922-13.201-13.201V30.268c0-7.279 5.922-13.201 13.201-13.201h229.598c7.279 0 13.201 5.922 13.201 13.201v451.464z"/><path d="M370.807 0H141.201c-16.691 0-30.268 13.577-30.268 30.268v55.066h290.133V30.268C401.067 13.577 387.49 0 370.807 0zM384 68.267H128V30.268c0-7.279 5.922-13.201 13.201-13.201h229.598c7.279 0 13.201 5.922 13.201 13.201v37.999zm-273.067 358.4v55.066c0 16.691 13.576 30.268 30.268 30.268h229.598c16.691 0 30.268-13.576 30.268-30.268v-55.066H110.933zM384 481.732c0 7.279-5.922 13.201-13.193 13.201H141.201c-7.279 0-13.201-5.922-13.201-13.201v-37.999h256v37.999z"/><path d="M256 426.667c-23.526 0-42.667 19.14-42.667 42.667C213.333 492.86 232.474 512 256 512c23.526 0 42.667-19.14 42.667-42.667 0-23.526-19.141-42.666-42.667-42.666zm0 68.266c-14.114 0-25.6-11.486-25.6-25.6s11.486-25.6 25.6-25.6 25.6 11.486 25.6 25.6-11.486 25.6-25.6 25.6zm25.6-460.8h-51.2a8.536 8.536 0 0 0-8.533 8.533 8.536 8.536 0 0 0 8.533 8.533h51.2a8.536 8.536 0 0 0 8.533-8.533 8.536 8.536 0 0 0-8.533-8.533zm46.899 154.727a8.526 8.526 0 0 0-11.639 3.174l-53.641 93.867c-2.338 4.087-.913 9.301 3.174 11.639a8.43 8.43 0 0 0 4.224 1.126 8.524 8.524 0 0 0 7.415-4.301l53.641-93.867c2.339-4.086.914-9.3-3.174-11.638zm68.267-119.467c-4.087-2.338-9.301-.913-11.639 3.174l-43.887 76.8c-2.338 4.087-.913 9.301 3.174 11.639a8.43 8.43 0 0 0 4.224 1.126c2.961 0 5.845-1.536 7.415-4.301l43.887-76.8c2.338-4.086.913-9.3-3.174-11.638zm0 119.467c-4.087-2.338-9.301-.913-11.639 3.174l-59.733 104.533c-2.338 4.087-.913 9.301 3.174 11.639a8.43 8.43 0 0 0 4.224 1.126 8.524 8.524 0 0 0 7.415-4.301l59.733-104.533c2.338-4.086.913-9.3-3.174-11.638zm-78.02 136.525c-4.087-2.338-9.301-.913-11.639 3.174l-29.261 51.209c-2.338 4.087-.913 9.301 3.174 11.639a8.43 8.43 0 0 0 4.224 1.126c2.97 0 5.845-1.536 7.415-4.301l29.261-51.209c2.338-4.086.913-9.3-3.174-11.638z"/></svg>