<svg xmlns="http://www.w3.org/2000/svg" width="512" height="512" viewBox="0 0 512 512"><path d="M426.667 405.333V480c0 5.891-4.776 10.667-10.667 10.667H96c-5.891 0-10.667-4.776-10.667-10.667v-85.333H64V480c0 17.673 14.327 32 32 32h320c17.673 0 32-14.327 32-32v-74.667h-21.333zm21.194-299.338a10.058 10.058 0 0 0-.544-2.741c-.117-.341-.203-.672-.352-1.003a10.512 10.512 0 0 0-2.133-3.125l-96-96a10.525 10.525 0 0 0-3.136-2.133c-.32-.149-.64-.235-.971-.352a10.49 10.49 0 0 0-2.805-.555c-.171.031-.373-.086-.587-.086H96C78.327 0 64 14.327 64 32v170.667h21.333V32c0-5.891 4.776-10.667 10.667-10.667h234.667v64c0 17.673 14.327 32 32 32h64V192H448v-85.333c0-.235-.117-.438-.139-.672zM362.667 96C356.776 96 352 91.224 352 85.333V36.416L411.584 96h-48.917zm106.666 117.333h-256c-5.891 0-10.667 4.776-10.667 10.667v149.333c0 5.891 4.776 10.667 10.667 10.667h256c5.891 0 10.667-4.776 10.667-10.667V224c0-5.891-4.776-10.667-10.667-10.667zm-47.882 21.334l-80.181 51.371-81.952-51.371h162.133zM224 237.717l67.541 42.325L224 347.584V237.717zm15.083 124.95l70.997-70.997 25.6 16a10.665 10.665 0 0 0 11.424-.064l25.312-16.224 71.232 71.285H239.083zm219.584-15.147l-67.872-67.872 67.872-43.488v111.36zM117.33 224h64v21.33h-64zm-42.66 0H96v21.33H74.67zm-21.34 42.67h128V288h-128zm85.34 42.66h42.67v21.33h-42.67zm-42.67 0h21.33v21.33H96zm-42.67 0h21.33v21.33H53.33zM32 352h149.33v21.33H32z"/><path d="M128 64h21.33v21.33H128zm42.67 0h42.67v21.33h-42.67zM128 106.67h85.33V128H128z"/></svg>