<svg xmlns="http://www.w3.org/2000/svg" width="512" height="512" viewBox="0 0 512 512"><path d="M0 56.1v399.8h512V56.1H0zm327.673 15.117h39.724l-39.724 44.689V71.217zm-32.057 0h16.94v84.45l75.066-84.45h26.443l-118.45 118.451V71.217zm-119.303 0v44.689l-39.724-44.689h39.724zM15.117 162.34l22.171 21.988H15.117V162.34zm0 165.333h22.171l-22.171 21.985v-21.985zm0 43.278L74 312.555H15.117v-16.94h94.407l-94.407 94.408v-19.072zm161.196 69.832h-39.937l39.937-44.93v44.93zm15.117 0v-84.691l-75.28 84.691H89.921l118.451-118.451v118.451H191.43zm136.243 0v-44.93l39.937 44.93h-39.937zm60.163.001v-.001l-75.281-84.691v84.691h-16.94V322.334l118.45 118.451h-26.229zm109.047-82.818l-30.294-30.293h30.294v30.293zm0-77.467h-56.556l.005 15.117h56.551v16.94h-66.789l66.789 66.789v18.692L394.462 295.616h21.824v-15.117h-58.32l138.917 138.917v21.369h-61.439L280.499 285.838v154.946h-57.011V285.838L68.542 440.783H15.117V411.4L146.02 280.498H15.117V231.5H47.63v-15.117H15.117v-16.938H74l-58.883-58.393v-19.075l94.407 94.407H71.675v15.117h74.345L15.117 100.599V71.217h53.425l154.946 154.945V111.74h-15.117v77.927L89.921 71.217h26.443l75.066 84.45v-84.45h16.941v16.486h15.117V71.217h57.011v154.945L435.444 71.217h61.439v21.367L357.966 231.501h138.917v48.998zm.001-64.114H394.462l102.421-102.422v18.693l-66.788 66.789h66.789v16.94zm-.001-62.35v30.293h-30.294l30.294-30.293z"/></svg>