<svg xmlns="http://www.w3.org/2000/svg" width="198" height="26" viewBox="0 0 198 26"><g fill="none" fill-rule="evenodd"><text fill="#E30613" font-family="CorpidE3SCd-Regular, Corpid E3 SCd" font-size="14"><tspan x="99" y="18">Маркетолог</tspan></text><text fill="#7F888E" font-family="CorpidE3SCd-Regular, Corpid E3 SCd" font-size="12"><tspan x="173" y="18">βeta</tspan></text><path stroke="#E30613" stroke-linecap="square" d="M88 1v24"/><path fill="#E30613" d="M24.459 1.916c0-.754-.61-1.37-1.354-1.37H1.36A1.37 1.37 0 0 0 0 1.917v21.95c0 .758.611 1.37 1.36 1.37h21.745c.745 0 1.354-.612 1.354-1.37V1.916zm18.216 16.856l2.202-5.157h.242l.454 6.507h4l-.912-13.455h-3.863l-3.325 7.646h-.243l-3.463-7.646h-3.81l-.913 13.455h3.894l.401-6.507h.238l2.47 5.157h2.628m8.432-8.696h3.977v10.046h4.135V10.076h3.976l.238-3.409H50.866l.241 3.41m24.013 6.667l.264 3.295s-2.362.288-4.138.288c-4.4 0-6.519-1.164-6.519-5.313v-3.27c0-3.764 1.75-5.31 6.547-5.31 1.805 0 3.895.285 3.895.285l-.237 3.298s-1.64-.232-3.34-.232c-2.356 0-2.757.695-2.757 2.527v2.136c0 1.78.453 2.501 2.757 2.501a32.12 32.12 0 0 0 3.528-.205"/><path fill="#FFF" d="M12 23c4.835 0 7-3.763 7-7.494 0-2.55-.888-5.485-2.37-7.854C15.19 5.362 13.457 4 12 4c-1.46 0-3.193 1.361-4.622 3.652C5.888 10.022 5 12.956 5 15.506 5 19.236 7.162 23 12 23"/></g></svg>