<svg xmlns="http://www.w3.org/2000/svg" id="Слой_1" width="512" height="512" viewBox="0 0 512 512"><style>.st0{stroke:#000;stroke-miterlimit:10}</style><path d="M166.5 23c-52.5 0-95.2 42.7-95.2 95.2s42.7 95.2 95.2 95.2 95.2-42.7 95.2-95.2S219 23 166.5 23zm0 160.4c-36 0-65.2-29.2-65.2-65.2S130.6 53 166.5 53s65.2 29.2 65.2 65.2-29.2 65.2-65.2 65.2zM437 283.3H324.2c-3.3 0-6.6.2-9.9.7-20.9-32.3-57.2-53.7-98.5-53.7h-98.7C52.6 230.2 0 282.7 0 347.3V474c0 8.3 6.7 15 15 15h482c8.3 0 15-6.7 15-15V358.3c0-41.4-33.6-75-75-75zm-187.8 75V459H30V347.3c0-48.1 39.1-87.2 87.2-87.2h98.7c28.1 0 53.2 13.4 69.1 34.2-21.4 13.3-35.8 37-35.8 64zM482 459H279.2V358.3c0-24.8 20.2-45 45-45H437c24.8 0 45 20.2 45 45V459z" class="st0"/><path d="M380.6 109.6c-42.2 0-76.6 34.4-76.6 76.6 0 42.2 34.4 76.6 76.6 76.6 42.2 0 76.6-34.4 76.6-76.6s-34.3-76.6-76.6-76.6zm0 123.2c-25.7 0-46.6-20.9-46.6-46.6s20.9-46.6 46.6-46.6 46.6 20.9 46.6 46.6c0 25.7-20.9 46.6-46.6 46.6z"/></svg>