<svg xmlns="http://www.w3.org/2000/svg" width="200" height="200" viewBox="0 0 200 200">
  <g fill="none" fill-rule="evenodd">
    <path fill="#42425B" d="M100,200 C155.228475,200 200,155.228475 200,100 C200,44.771525 155.228475,0 100,0 C44.771525,0 0,44.771525 0,100 C0,155.228475 44.771525,200 100,200 Z" opacity=".2" transform="rotate(-180 100 100)"/>
    <g fill="#FFFFFF" fill-rule="nonzero" transform="translate(29 25)">
      <path d="M37.5217949 116.943396C35.5062927 116.943396 33.8724054 115.389064 33.8724054 113.471698 33.8724054 111.554332 35.5062927 110 37.5217949 110 39.537297 110 41.1711844 111.554332 41.1711844 113.471698 41.1711844 115.389064 39.537297 116.943396 37.5217949 116.943396zM43.0674167 126.000878C43.1015818 126.244199 43.0224626 126.489221 42.8498389 126.671286 42.6790134 126.855053 42.4344633 126.960549 42.1755278 126.960549L41.2063179 126.960549 40.4564839 135.623108C40.3629794 136.509612 39.5933656 137.169811 38.6655135 137.169811L36.696525 137.169811C35.7686728 137.169811 34.9972609 136.509612 34.9073527 135.638422L34.1557206 126.960549 33.1847125 126.960549C32.925777 126.960549 32.6812268 126.855053 32.5104014 126.671286 32.3395759 126.489221 32.2604567 126.244199 32.2928236 126.00258L33.1109878 119.962099C33.200896 119.111328 33.9705098 118.45283 34.8983619 118.45283L35.8819571 118.45283C36.1211128 118.45283 36.3494795 118.543012 36.5185068 118.701256L37.6801201 119.800453 38.8417335 118.701256C39.0107608 118.543012 39.2391275 118.45283 39.4782832 118.45283L40.4636766 118.45283C41.3897305 118.45283 42.1593443 119.111328 42.2510506 119.98422L43.0674167 126.000878zM109.626557 88.9433962C107.611055 88.9433962 105.977167 87.389064 105.977167 85.4716981 105.977167 83.5543322 107.611055 82 109.626557 82 111.642059 82 113.275946 83.5543322 113.275946 85.4716981 113.275946 87.389064 111.642059 88.9433962 109.626557 88.9433962zM115.172179 98.0008782C115.206344 98.244199 115.127224 98.4892213 114.954601 98.6712864 114.783775 98.8550532 114.539225 98.9605489 114.28029 98.9605489L113.31108 98.9605489 112.561246 107.623108C112.467741 108.509612 111.698128 109.169811 110.770275 109.169811L108.801287 109.169811C107.873435 109.169811 107.102023 108.509612 107.012115 107.638422L106.260482 98.9605489 105.289474 98.9605489C105.030539 98.9605489 104.785989 98.8550532 104.615163 98.6712864 104.444338 98.4892213 104.365219 98.244199 104.397586 98.0025798L105.21575 91.9620995C105.305658 91.1113276 106.075272 90.4528302 107.003124 90.4528302L107.986719 90.4528302C108.225875 90.4528302 108.454241 90.543012 108.623269 90.7012556L109.784882 91.8004528 110.946495 90.7012556C111.115523 90.543012 111.343889 90.4528302 111.583045 90.4528302L112.568438 90.4528302C113.494492 90.4528302 114.264106 91.1113276 114.355813 91.9842196L115.172179 98.0008782zM98.864652 118.943396C96.8491498 118.943396 95.2152625 117.389064 95.2152625 115.471698 95.2152625 113.554332 96.8491498 112 98.864652 112 100.880154 112 102.514042 113.554332 102.514042 115.471698 102.514042 117.389064 100.880154 118.943396 98.864652 118.943396zM104.410274 128.000878C104.444439 128.244199 104.36532 128.489221 104.192696 128.671286 104.021871 128.855053 103.77732 128.960549 103.518385 128.960549L102.549175 128.960549 101.799341 137.623108C101.705837 138.509612 100.936223 139.169811 100.008371 139.169811L98.0393821 139.169811C97.11153 139.169811 96.340118 138.509612 96.2502099 137.638422L95.4985777 128.960549 94.5275696 128.960549C94.2686342 128.960549 94.024084 128.855053 93.8532585 128.671286 93.682433 128.489221 93.6033138 128.244199 93.6356808 128.00258L94.453845 121.962099C94.5437531 121.111328 95.3133669 120.45283 96.241219 120.45283L97.2248142 120.45283C97.4639699 120.45283 97.6923366 120.543012 97.861364 120.701256L99.0229773 121.800453 100.184591 120.701256C100.353618 120.543012 100.581985 120.45283 100.82114 120.45283L101.806534 120.45283C102.732588 120.45283 103.502201 121.111328 103.593908 121.98422L104.410274 128.000878zM135.455128 60.9433962C133.439626 60.9433962 131.805739 59.389064 131.805739 57.4716981 131.805739 55.5543322 133.439626 54 135.455128 54 137.47063 54 139.104518 55.5543322 139.104518 57.4716981 139.104518 59.389064 137.47063 60.9433962 135.455128 60.9433962zM141.00075 70.0008782C141.034915 70.244199 140.955796 70.4892213 140.783172 70.6712864 140.612347 70.8550532 140.367797 70.9605489 140.108861 70.9605489L139.139651 70.9605489 138.389817 79.6231081C138.296313 80.5096123 137.526699 81.1698113 136.598847 81.1698113L134.629858 81.1698113C133.702006 81.1698113 132.930594 80.5096123 132.840686 79.638422L132.089054 70.9605489 131.118046 70.9605489C130.85911 70.9605489 130.61456 70.8550532 130.443735 70.6712864 130.272909 70.4892213 130.19379 70.244199 130.226157 70.0025798L131.044321 63.9620995C131.134229 63.1113276 131.903843 62.4528302 132.831695 62.4528302L133.81529 62.4528302C134.054446 62.4528302 134.282813 62.543012 134.45184 62.7012556L135.613453 63.8004528 136.775067 62.7012556C136.944094 62.543012 137.172461 62.4528302 137.411617 62.4528302L138.39701 62.4528302C139.323064 62.4528302 140.092678 63.1113276 140.184384 63.9842196L141.00075 70.0008782zM70.8836996 6.94339623C68.8681975 6.94339623 67.2343101 5.38906404 67.2343101 3.47169811 67.2343101 1.55433219 68.8681975 0 70.8836996 0 72.8992018 0 74.5330891 1.55433219 74.5330891 3.47169811 74.5330891 5.38906404 72.8992018 6.94339623 70.8836996 6.94339623zM76.4293214 16.0008782C76.4634865 16.244199 76.3843673 16.4892213 76.2117437 16.6712864 76.0409182 16.8550532 75.796368 16.9605489 75.5374325 16.9605489L74.5682227 16.9605489 73.8183887 25.6231081C73.7248842 26.5096123 72.9552704 27.1698113 72.0274183 27.1698113L70.0584297 27.1698113C69.1305776 27.1698113 68.3591656 26.5096123 68.2692575 25.638422L67.5176253 16.9605489 66.5466173 16.9605489C66.2876818 16.9605489 66.0431316 16.8550532 65.8723061 16.6712864 65.7014806 16.4892213 65.6223615 16.244199 65.6547284 16.0025798L66.4728926 9.96209949C66.5628007 9.11132762 67.3324145 8.45283019 68.2602667 8.45283019L69.2438618 8.45283019C69.4830175 8.45283019 69.7113842 8.54301201 69.8804116 8.70125557L71.0420249 9.80045283 72.2036382 8.70125557C72.3726656 8.54301201 72.6010323 8.45283019 72.840188 8.45283019L73.8255813 8.45283019C74.7516353 8.45283019 75.5212491 9.11132762 75.6129554 9.98421955L76.4293214 16.0008782zM94.5598901 10.9433962C92.5443879 10.9433962 90.9105006 9.38906404 90.9105006 7.47169811 90.9105006 5.55433219 92.5443879 4 94.5598901 4 96.5753923 4 98.2092796 5.55433219 98.2092796 7.47169811 98.2092796 9.38906404 96.5753923 10.9433962 94.5598901 10.9433962zM100.105512 20.0008782C100.139677 20.244199 100.060558 20.4892213 99.8879342 20.6712864 99.7171087 20.8550532 99.4725585 20.9605489 99.213623 20.9605489L98.2444131 20.9605489 97.4945791 29.6231081C97.4010747 30.5096123 96.6314609 31.1698113 95.7036087 31.1698113L93.7346202 31.1698113C92.8067681 31.1698113 92.0353561 30.5096123 91.9454479 29.638422L91.1938158 20.9605489 90.2228077 20.9605489C89.9638723 20.9605489 89.7193221 20.8550532 89.5484966 20.6712864 89.3776711 20.4892213 89.2985519 20.244199 89.3309189 20.0025798L90.1490831 13.9620995C90.2389912 13.1113276 91.008605 12.4528302 91.9364571 12.4528302L92.9200523 12.4528302C93.159208 12.4528302 93.3875747 12.543012 93.556602 12.7012556L94.7182154 13.8004528 95.8798287 12.7012556C96.048856 12.543012 96.2772227 12.4528302 96.5163784 12.4528302L97.5017718 12.4528302C98.4278258 12.4528302 99.1974396 13.1113276 99.2891459 13.9842196L100.105512 20.0008782zM74.1122711 128.943396C72.0967689 128.943396 70.4628816 127.389064 70.4628816 125.471698 70.4628816 123.554332 72.0967689 122 74.1122711 122 76.1277732 122 77.7616606 123.554332 77.7616606 125.471698 77.7616606 127.389064 76.1277732 128.943396 74.1122711 128.943396zM79.6578928 138.000878C79.6920579 138.244199 79.6129388 138.489221 79.4403151 138.671286 79.2694896 138.855053 79.0249395 138.960549 78.766004 138.960549L77.7967941 138.960549 77.0469601 147.623108C76.9534556 148.509612 76.1838418 149.169811 75.2559897 149.169811L73.2870011 149.169811C72.359149 149.169811 71.5877371 148.509612 71.4978289 147.638422L70.7461967 138.960549 69.7751887 138.960549C69.5162532 138.960549 69.271703 138.855053 69.1008775 138.671286 68.9300521 138.489221 68.8509329 138.244199 68.8832998 138.00258L69.701464 131.962099C69.7913722 131.111328 70.5609859 130.45283 71.4888381 130.45283L72.4724333 130.45283C72.711589 130.45283 72.9399557 130.543012 73.108983 130.701256L74.2705963 131.800453 75.4322097 130.701256C75.601237 130.543012 75.8296037 130.45283 76.0687594 130.45283L77.0541527 130.45283C77.9802067 130.45283 78.7498205 131.111328 78.8415268 131.98422L79.6578928 138.000878zM91.3313187 51.9433962C89.3158165 51.9433962 87.6819292 50.389064 87.6819292 48.4716981 87.6819292 46.5543322 89.3158165 45 91.3313187 45 93.3468208 45 94.9807082 46.5543322 94.9807082 48.4716981 94.9807082 50.389064 93.3468208 51.9433962 91.3313187 51.9433962zM96.8769405 61.0008782C96.9111056 61.244199 96.8319864 61.4892213 96.6593627 61.6712864 96.4885372 61.8550532 96.2439871 61.9605489 95.9850516 61.9605489L95.0158417 61.9605489 94.2660077 70.6231081C94.1725032 71.5096123 93.4028894 72.1698113 92.4750373 72.1698113L90.5060488 72.1698113C89.5781966 72.1698113 88.8067847 71.5096123 88.7168765 70.638422L87.9652444 61.9605489 86.9942363 61.9605489C86.7353008 61.9605489 86.4907507 61.8550532 86.3199252 61.6712864 86.1490997 61.4892213 86.0699805 61.244199 86.1023474 61.0025798L86.9205116 54.9620995C87.0104198 54.1113276 87.7800336 53.4528302 88.7078857 53.4528302L89.6914809 53.4528302C89.9306366 53.4528302 90.1590033 53.543012 90.3280306 53.7012556L91.489644 54.8004528 92.6512573 53.7012556C92.8202846 53.543012 93.0486513 53.4528302 93.287807 53.4528302L94.2732004 53.4528302C95.1992543 53.4528302 95.9688681 54.1113276 96.0605744 54.9842196L96.8769405 61.0008782zM74.1122711 87.9433962C72.0967689 87.9433962 70.4628816 86.389064 70.4628816 84.4716981 70.4628816 82.5543322 72.0967689 81 74.1122711 81 76.1277732 81 77.7616606 82.5543322 77.7616606 84.4716981 77.7616606 86.389064 76.1277732 87.9433962 74.1122711 87.9433962zM79.6578928 97.0008782C79.6920579 97.244199 79.6129388 97.4892213 79.4403151 97.6712864 79.2694896 97.8550532 79.0249395 97.9605489 78.766004 97.9605489L77.7967941 97.9605489 77.0469601 106.623108C76.9534556 107.509612 76.1838418 108.169811 75.2559897 108.169811L73.2870011 108.169811C72.359149 108.169811 71.5877371 107.509612 71.4978289 106.638422L70.7461967 97.9605489 69.7751887 97.9605489C69.5162532 97.9605489 69.271703 97.8550532 69.1008775 97.6712864 68.9300521 97.4892213 68.8509329 97.244199 68.8832998 97.0025798L69.701464 90.9620995C69.7913722 90.1113276 70.5609859 89.4528302 71.4888381 89.4528302L72.4724333 89.4528302C72.711589 89.4528302 72.9399557 89.543012 73.108983 89.7012556L74.2705963 90.8004528 75.4322097 89.7012556C75.601237 89.543012 75.8296037 89.4528302 76.0687594 89.4528302L77.0541527 89.4528302C77.9802067 89.4528302 78.7498205 90.1113276 78.8415268 90.9842196L79.6578928 97.0008782zM5.23608059 60.9433962C3.22057842 60.9433962 1.58669109 59.389064 1.58669109 57.4716981 1.58669109 55.5543322 3.22057842 54 5.23608059 54 7.25158275 54 8.88547009 55.5543322 8.88547009 57.4716981 8.88547009 59.389064 7.25158275 60.9433962 5.23608059 60.9433962zM10.7817024 70.0008782C10.8158675 70.244199 10.7367483 70.4892213 10.5641246 70.6712864 10.3932992 70.8550532 10.148749 70.9605489 9.8898135 70.9605489L8.92060361 70.9605489 8.17076961 79.6231081C8.07726514 80.5096123 7.30765135 81.1698113 6.37979921 81.1698113L4.41081067 81.1698113C3.48295853 81.1698113 2.71154658 80.5096123 2.62163842 79.638422L1.87000627 70.9605489.898998217 70.9605489C.640062737 70.9605489.395512561 70.8550532.224687071 70.6712864.0538615808 70.4892213-.0252575936 70.244199.00710934139 70.0025798L.825273532 63.9620995C.915181685 63.1113276 1.68479547 62.4528302 2.61264761 62.4528302L3.5962428 62.4528302C3.83539849 62.4528302 4.0637652 62.543012 4.23279252 62.7012556L5.39440586 63.8004528 6.55601919 62.7012556C6.72504652 62.543012 6.95341323 62.4528302 7.19256891 62.4528302L8.17796227 62.4528302C9.10401624 62.4528302 9.87363003 63.1113276 9.96533634 63.9842196L10.7817024 70.0008782zM60.1217949 52.9433962C58.1062927 52.9433962 56.4724054 51.389064 56.4724054 49.4716981 56.4724054 47.5543322 58.1062927 46 60.1217949 46 62.137297 46 63.7711844 47.5543322 63.7711844 49.4716981 63.7711844 51.389064 62.137297 52.9433962 60.1217949 52.9433962zM65.6674167 62.0008782C65.7015818 62.244199 65.6224626 62.4892213 65.4498389 62.6712864 65.2790134 62.8550532 65.0344633 62.9605489 64.7755278 62.9605489L63.8063179 62.9605489 63.0564839 71.6231081C62.9629794 72.5096123 62.1933656 73.1698113 61.2655135 73.1698113L59.296525 73.1698113C58.3686728 73.1698113 57.5972609 72.5096123 57.5073527 71.638422L56.7557206 62.9605489 55.7847125 62.9605489C55.525777 62.9605489 55.2812268 62.8550532 55.1104014 62.6712864 54.9395759 62.4892213 54.8604567 62.244199 54.8928236 62.0025798L55.7109878 55.9620995C55.800896 55.1113276 56.5705098 54.4528302 57.4983619 54.4528302L58.4819571 54.4528302C58.7211128 54.4528302 58.9494795 54.543012 59.1185068 54.7012556L60.2801201 55.8004528 61.4417335 54.7012556C61.6107608 54.543012 61.8391275 54.4528302 62.0782832 54.4528302L63.0636766 54.4528302C63.9897305 54.4528302 64.7593443 55.1113276 64.8510506 55.9842196L65.6674167 62.0008782zM32.1408425 74.9433962C30.1253403 74.9433962 28.491453 73.389064 28.491453 71.4716981 28.491453 69.5543322 30.1253403 68 32.1408425 68 34.1563447 68 35.790232 69.5543322 35.790232 71.4716981 35.790232 73.389064 34.1563447 74.9433962 32.1408425 74.9433962zM37.6864643 84.0008782C37.7206294 84.244199 37.6415102 84.4892213 37.4688865 84.6712864 37.2980611 84.8550532 37.0535109 84.9605489 36.7945754 84.9605489L35.8253655 84.9605489 35.0755315 93.6231081C34.982027 94.5096123 34.2124133 95.1698113 33.2845611 95.1698113L31.3155726 95.1698113C30.3877204 95.1698113 29.6163085 94.5096123 29.5264003 93.638422L28.7747682 84.9605489 27.8037601 84.9605489C27.5448246 84.9605489 27.3002745 84.8550532 27.129449 84.6712864 26.9586235 84.4892213 26.8795043 84.244199 26.9118712 84.0025798L27.7300354 77.9620995C27.8199436 77.1113276 28.5895574 76.4528302 29.5174095 76.4528302L30.5010047 76.4528302C30.7401604 76.4528302 30.9685271 76.543012 31.1375544 76.7012556L32.2991678 77.8004528 33.4607811 76.7012556C33.6298084 76.543012 33.8581751 76.4528302 34.0973308 76.4528302L35.0827242 76.4528302C36.0087781 76.4528302 36.7783919 77.1113276 36.8700982 77.9842196L37.6864643 84.0008782zM12.7970085 101.943396C10.7815064 101.943396 9.14761905 100.389064 9.14761905 98.4716981 9.14761905 96.5543322 10.7815064 95 12.7970085 95 14.8125107 95 16.446398 96.5543322 16.446398 98.4716981 16.446398 100.389064 14.8125107 101.943396 12.7970085 101.943396zM18.3426303 111.000878C18.3767954 111.244199 18.2976763 111.489221 18.1250526 111.671286 17.9542271 111.855053 17.7096769 111.960549 17.4507415 111.960549L16.4815316 111.960549 15.7316976 120.623108C15.6381931 121.509612 14.8685793 122.169811 13.9407272 122.169811L11.9717386 122.169811C11.0438865 122.169811 10.2724745 121.509612 10.1825664 120.638422L9.43093423 111.960549 8.45992618 111.960549C8.2009907 111.960549 7.95644052 111.855053 7.78561503 111.671286 7.61478954 111.489221 7.53567037 111.244199 7.5680373 111.00258L8.38620149 104.962099C8.47610965 104.111328 9.24572343 103.45283 10.1735756 103.45283L11.1571708 103.45283C11.3963264 103.45283 11.6246932 103.543012 11.7937205 103.701256L12.9553338 104.800453 14.1169472 103.701256C14.2859745 103.543012 14.5143412 103.45283 14.7534969 103.45283L15.7388902 103.45283C16.6649442 103.45283 17.434558 104.111328 17.5262643 104.98422L18.3426303 111.000878zM115.007509 25.9433962C112.992007 25.9433962 111.35812 24.389064 111.35812 22.4716981 111.35812 20.5543322 112.992007 19 115.007509 19 117.023011 19 118.656899 20.5543322 118.656899 22.4716981 118.656899 24.389064 117.023011 25.9433962 115.007509 25.9433962zM120.553131 35.0008782C120.587296 35.244199 120.508177 35.4892213 120.335553 35.6712864 120.164728 35.8550532 119.920178 35.9605489 119.661242 35.9605489L118.692032 35.9605489 117.942198 44.6231081C117.848694 45.5096123 117.07908 46.1698113 116.151228 46.1698113L114.182239 46.1698113C113.254387 46.1698113 112.482975 45.5096123 112.393067 44.638422L111.641435 35.9605489 110.670427 35.9605489C110.411491 35.9605489 110.166941 35.8550532 109.996116 35.6712864 109.82529 35.4892213 109.746171 35.244199 109.778538 35.0025798L110.596702 28.9620995C110.68661 28.1113276 111.456224 27.4528302 112.384076 27.4528302L113.367671 27.4528302C113.606827 27.4528302 113.835194 27.543012 114.004221 27.7012556L115.165834 28.8004528 116.327448 27.7012556C116.496475 27.543012 116.724842 27.4528302 116.963997 27.4528302L117.949391 27.4528302C118.875445 27.4528302 119.645059 28.1113276 119.736765 28.9842196L120.553131 35.0008782zM42.9027473 20.9433962C40.8872451 20.9433962 39.2533578 19.389064 39.2533578 17.4716981 39.2533578 15.5543322 40.8872451 14 42.9027473 14 44.9182494 14 46.5521368 15.5543322 46.5521368 17.4716981 46.5521368 19.389064 44.9182494 20.9433962 42.9027473 20.9433962zM48.448369 30.0008782C48.4825341 30.244199 48.403415 30.4892213 48.2307913 30.6712864 48.0599658 30.8550532 47.8154156 30.9605489 47.5564802 30.9605489L46.5872703 30.9605489 45.8374363 39.6231081C45.7439318 40.5096123 44.974318 41.1698113 44.0464659 41.1698113L42.0774773 41.1698113C41.1496252 41.1698113 40.3782132 40.5096123 40.2883051 39.638422L39.5366729 30.9605489 38.5656649 30.9605489C38.3067294 30.9605489 38.0621792 30.8550532 37.8913537 30.6712864 37.7205282 30.4892213 37.6414091 30.244199 37.673776 30.0025798L38.4919402 23.9620995C38.5818484 23.1113276 39.3514621 22.4528302 40.2793143 22.4528302L41.2629095 22.4528302C41.5020652 22.4528302 41.7304319 22.543012 41.8994592 22.7012556L43.0610725 23.8004528 44.2226859 22.7012556C44.3917132 22.543012 44.6200799 22.4528302 44.8592356 22.4528302L45.8446289 22.4528302C46.7706829 22.4528302 47.5402967 23.1113276 47.632003 23.9842196L48.448369 30.0008782zM12.7970085 23.9433962C10.7815064 23.9433962 9.14761905 22.389064 9.14761905 20.4716981 9.14761905 18.5543322 10.7815064 17 12.7970085 17 14.8125107 17 16.446398 18.5543322 16.446398 20.4716981 16.446398 22.389064 14.8125107 23.9433962 12.7970085 23.9433962zM18.3426303 33.0008782C18.3767954 33.244199 18.2976763 33.4892213 18.1250526 33.6712864 17.9542271 33.8550532 17.7096769 33.9605489 17.4507415 33.9605489L16.4815316 33.9605489 15.7316976 42.6231081C15.6381931 43.5096123 14.8685793 44.1698113 13.9407272 44.1698113L11.9717386 44.1698113C11.0438865 44.1698113 10.2724745 43.5096123 10.1825664 42.638422L9.43093423 33.9605489 8.45992618 33.9605489C8.2009907 33.9605489 7.95644052 33.8550532 7.78561503 33.6712864 7.61478954 33.4892213 7.53567037 33.244199 7.5680373 33.0025798L8.38620149 26.9620995C8.47610965 26.1113276 9.24572343 25.4528302 10.1735756 25.4528302L11.1571708 25.4528302C11.3963264 25.4528302 11.6246932 25.543012 11.7937205 25.7012556L12.9553338 26.8004528 14.1169472 25.7012556C14.2859745 25.543012 14.5143412 25.4528302 14.7534969 25.4528302L15.7388902 25.4528302C16.6649442 25.4528302 17.434558 26.1113276 17.5262643 26.9842196L18.3426303 33.0008782z"/>
    </g>
  </g>
</svg>
